<svg data-name="Component 19 – 1" xmlns="http://www.w3.org/2000/svg" width="121.177" height="27.335"><path data-name="Path 7234" d="M38.733 8.495V27.06h5.695c-.09-.186.105-19.841.105-19.841z" fill="#161615"/><path data-name="Path 7235" d="M33.655 7.245a8.683 8.683 0 0 0-5.7 2.292 5.689 5.689 0 0 0-.954-2.588l-5.114 1.287c.9 1.846.938 4.664 1.009 7.389.1 3.815-.169 7.928-.169 11.437h5.53s-.083-7.967.171-11.437a6.429 6.429 0 0 1 .713-2.71c.985-1.378 3.352-1.614 5.522-1.5.537-1.409 1.033-2.718 1.507-4.185 0 0-1.829-.028-2.519.015" fill="#161615"/><path data-name="Path 7236" d="M24.596.314L.096.282c-.112.015-.1 3.176-.1 4.631H8.68v22.175h6.149V4.913h7.389c.789-1.523 2.372-4.6 2.372-4.6" fill="#161615"/><path data-name="Path 7237" d="M41.15.73a3.139 3.139 0 0 0-2.691 1.75c-1.461 4.2 6.07 5.117 6.817 1.584C45.797 1.599 43.11.454 41.15.73" fill="#161615"/><path data-name="Path 7238" d="M111.343 23.154a1.7 1.7 0 0 1-1.088-1.623 24.67 24.67 0 0 1-.1-3.768c0-5.263.45-10.328.061-15.095A6.272 6.272 0 0 0 109.488 0l-5.641 1.174a18.638 18.638 0 0 1 .758 5.784l-.153 14.925c0 3.976 3.475 5.218 6.67 5.218 1.714.027 3.649 0 3.649 0l1.265-3.567a19.667 19.667 0 0 1-4.693-.377" fill="#161615"/><path data-name="Path 7239" d="M87.294 14.918a4.344 4.344 0 0 1 4.518-3.75 4.053 4.053 0 0 1 4.333 3.75zm3.548-7.6a9.1 9.1 0 0 0-6.794 3.417 10.886 10.886 0 0 0-2.323 6.711 11.513 11.513 0 0 0 .79 4.268c1.272 3.361 4.881 5.26 8.794 5.512a44.743 44.743 0 0 0 7.927-.1l1.279-3.651c.1-.012-4.456.165-8.006-.071-3.019-.2-5.515-1.358-5.589-4.483h14.192a14.285 14.285 0 0 0-.32-5.16c-1.117-4.19-4.474-6.827-9.95-6.44" fill="#161615"/><path data-name="Path 7240" d="M70.575 7.54h5.789c.089-1.762.054-5.2-.641-6.16-1.864.321-5.446 1.175-5.615 1.167a14.487 14.487 0 0 1 .467 4.993" fill="#161615"/><path data-name="Path 7241" d="M76.98 23.155c-1.289-.58-.961-3.15-.961-5.526 0-2.3.122-5.792.122-5.792l-5.556 1.4a84.866 84.866 0 0 0 .047 9.987c.363 2.715 3.087 3.829 6.128 3.877 1.713.027 3.649 0 3.649 0l1.265-3.567c-.889.036-3.623.1-4.693-.377" fill="#161615"/><path data-name="Path 7242" d="M81.882 7.473l-2.383 4.021-20.361-.045c-.778 0-4.085-.263-4.085 1.581 0 1.265 1.891 1.512 2.723 1.671a43.153 43.153 0 0 1 5.3 1.265 5.211 5.211 0 0 1 3.89 5.061c0 3.525-3.383 5-4.425 5.351a21.183 21.183 0 0 1-6.661.773l-10.219-.075 2.285-3.971h8.468c2.233 0 5.3.006 5.3-1.94 0-1.491-1.459-1.765-2.48-1.991-.436-.1-4.479-.844-5.154-1.039-1.411-.407-4.62-1.22-4.62-4.925 0-2.8 1.839-4.364 4.237-5.108a22.276 22.276 0 0 1 6.363-.63z" fill="#adbf00"/><path data-name="Path 7243" d="M121.177 2.867l-.244-2.823h-.5l-.533 1.885q-.025.087-.043.172l-.033.149q-.014.064-.027.143-.054-.289-.112-.5l-.517-1.851h-.5l-.248 2.823h.326l.157-2.017q0-.066.01-.159t.01-.18q0-.087.012-.211.07.314.141.554l.562 2.013h.289l.608-2.116q.025-.091.052-.2t.041-.174a.622.622 0 0 1 .019-.074q0 .1.006.174t.006.159q0 .085.008.151l.165 2.079zM118.242.045h-1.88v.289h.76v2.533h.331V.334h.769z" fill="#161615"/></svg>